<svg id="Layer_1" data-name="Layer 1" xmlns="http://www.w3.org/2000/svg" width="145" height="80" viewBox="0 0 145 80"><title>TG1_logo</title><path d="M125.8843,40.0733c.0135.0319.027,9.0242.036,19.9816l.009,19.9224,9.5376.0136L145,80V50.5076c0-16.2245-.0135-29.5061-.0315-29.5152-.0631-.0364-18.8455-.0637-27.01-.0364l-7.9705.0273-.0135,9.5155-.009,9.52h7.948C124.2317,40.0188,125.8708,40.0324,125.8843,40.0733Z" transform="translate(0 0)" fill="#fff"/><path d="M43.2568,20.7422c-.0135.0592-.027,9.07-.027,20.0225,0,14.728-.0135,19.9315-.0495,19.977-.045.0546-1.8057.0637-10.8975.0637-9.7943,0-10.848-.0091-10.9111-.0728S21.3,59.6409,21.3,50.0755c0-8.1691.0135-10.598.054-10.6389s1.8238-.0546,7.7454-.0546H36.79l-.009-9.52-.0135-9.5155L29.09,20.3329c-5.2687-.0046-7.6869-.0227-7.7229-.0591-.0315-.0319-.054-3.2022-.0675-10.1523L21.2772.0148,10.6679.0012C4.8318-.0034.045.0057.0315.0239.0135.0375,0,18.0405,0,40.0279V80H105.7329V61.5331c0-12.2809-.0135-18.4668-.045-18.4668-3.598-.0137-18.8.0091-18.8275.0273-.0225.0136-.0406,3.5432-.0406,8.8195,0,8.6512,0,8.7967-.0855,8.8468-.063.0318-3.9582.0455-12.2664.0455-10.1906,0-12.1854-.0091-12.23-.0637-.036-.0455-.045-2.8292-.0405-10.5389l.0135-10.48,21.7635-.0137,21.759-.009-.009-9.52-.0135-9.5155-31.211-.0136-31.2155-.0091Z" transform="translate(0 0)" fill="#fff"/></svg>